<svg xmlns="http://www.w3.org/2000/svg" width="400" height="866" viewBox="0 0 400 866">
  <rect width="400" height="866" fill="#f1f5f9"/>
  <rect x="0" y="0" width="400" height="60" fill="#ffffff"/>
  <circle cx="200" cy="30" r="12" fill="#0f172a"/>
  <rect x="40" y="120" width="320" height="200" rx="16" fill="#ffffff"/>
  <rect x="60" y="150" width="200" height="16" rx="8" fill="#e2e8f0"/>
  <rect x="60" y="180" width="280" height="12" rx="6" fill="#e2e8f0"/>
  <rect x="60" y="210" width="160" height="12" rx="6" fill="#e2e8f0"/>
  <rect x="60" y="260" width="100" height="36" rx="18" fill="#0ea5e9"/>
  <rect x="40" y="360" width="320" height="240" rx="16" fill="#ffffff"/>
  <rect x="60" y="390" width="120" height="12" rx="6" fill="#e2e8f0"/>
  <circle cx="90" cy="450" r="24" fill="#14b8a6"/>
  <circle cx="160" cy="450" r="24" fill="#0ea5e9"/>
  <circle cx="230" cy="450" r="24" fill="#f97316"/>
  <rect x="60" y="510" width="280" height="12" rx="6" fill="#e2e8f0"/>
  <rect x="60" y="540" width="200" height="12" rx="6" fill="#e2e8f0"/>
  <rect x="40" y="640" width="320" height="120" rx="16" fill="#ffffff"/>
  <rect x="60" y="670" width="180" height="16" rx="8" fill="#e2e8f0"/>
  <rect x="60" y="700" width="260" height="12" rx="6" fill="#e2e8f0"/>
  <text x="200" y="820" text-anchor="middle" font-family="system-ui, sans-serif" font-size="16" fill="#64748b">
    Add your screenshot
  </text>
</svg>
